<svg width="12" height="12" viewBox="0 0 12 12" fill="none" xmlns="http://www.w3.org/2000/svg">
<path d="M9.06252 1.19922C9.29059 1.19925 9.51685 1.24378 9.72756 1.33105C9.93827 1.41835 10.1298 1.54675 10.291 1.70801C10.4523 1.86926 10.5807 2.06082 10.668 2.27148C10.7552 2.48214 10.7998 2.70852 10.7998 2.93652C10.7998 3.16452 10.7552 3.3909 10.668 3.60156C10.5807 3.8122 10.4522 4.00378 10.291 4.16504L4.38479 10.0713C4.32341 10.1327 4.24682 10.1773 4.16311 10.2002L1.75686 10.8564C1.58375 10.9037 1.39838 10.8544 1.27151 10.7275C1.14471 10.6007 1.0954 10.4152 1.1426 10.2422L1.79885 7.83594C1.82181 7.75229 1.86641 7.6756 1.92776 7.61426L7.83401 1.70801C7.99527 1.54685 8.18685 1.4183 8.39748 1.33105C8.60818 1.24384 8.83449 1.19922 9.06252 1.19922ZM2.72854 8.22656L2.33694 9.66113L3.77151 9.26953L8.46389 4.57715L7.42092 3.53418L2.72854 8.22656ZM9.06252 2.19922C8.96586 2.19922 8.86963 2.21796 8.7803 2.25488C8.69099 2.29188 8.60944 2.34673 8.54104 2.41504L8.12795 2.82715L9.17092 3.87012L9.58401 3.45801C9.65231 3.38961 9.70717 3.30806 9.74416 3.21875C9.78106 3.12945 9.79983 3.03315 9.79983 2.93652C9.79977 2.83984 9.78116 2.74362 9.74416 2.6543C9.70711 2.56491 9.65243 2.48346 9.58401 2.41504C9.51558 2.34664 9.43413 2.29192 9.34475 2.25488C9.2554 2.2179 9.15922 2.19925 9.06252 2.19922Z" fill="#727B8C"/>
</svg>
